# xmcd CD database file
#
# Track frame offsets:
#	225
#	23465
#	52515
#	69493
#	85368
#	109848
#	133468
#	149228
#	169083
#	204583
#	230115
#	249555
#	272438
#	295858
#
# Disc length: 4216 seconds
#
# Revision: 0
# Processed by: cddbd v1.5.1PL0 Copyright (c) Steve Scherf et al.
# Submitted via: CDex 1.60beta1
#
DISCID=d110750e
DTITLE=Various Artist - Voss Records Jazz Series Sampler
DYEAR=0
DGENRE=Jazz
TTITLE0=Louis Bellson - Sambandrea Swing
TTITLE1=Don Menza - In A Sentimental Mood
TTITLE2=Bellison - On A Clear Day
TTITLE3=Michael Melvoin - Soul Knows No Boundray
TTITLE4=John Coltrane - Naima
TTITLE5=Roger Kellaway - Ungh
TTITLE6=Milcho Leviev - Bulgarian Boogie
TTITLE7=Bareto Morales - Her's That Rainy Day
TTITLE8=Don Menza - Tonawanda Fats
TTITLE9=Kenny Burrell - Night In Tunisia
TTITLE10=Bellson - The Lady Is A Tramp
TTITLE11=Louis Bellson - Skin Deep
TTITLE12=M. Leviev - Pavane For A True Musical Prince
TTITLE13=Paul Smith - The Fourth Way
EXTD=YEAR: 0
EXTT0=
EXTT1=
EXTT2=
EXTT3=
EXTT4=
EXTT5=
EXTT6=
EXTT7=
EXTT8=
EXTT9=
EXTT10=
EXTT11=
EXTT12=
EXTT13=
PLAYORDER=
